<mxfile host="app.diagrams.net" modified="2024-04-28T05:12:06.283Z" agent="Mozilla/5.0 (Macintosh; Intel Mac OS X 10_15_7) AppleWebKit/537.36 (KHTML, like Gecko) Chrome/124.0.0.0 Safari/537.36" etag="0J9e9VD40HwL5nVN1ftx" version="24.3.1" type="github">
  <diagram name="ページ1" id="XTaJxxw5Hge7_qkU86yJ">
    <mxGraphModel dx="1570" dy="1025" grid="1" gridSize="10" guides="1" tooltips="1" connect="1" arrows="1" fold="1" page="1" pageScale="1" pageWidth="1169" pageHeight="827" math="0" shadow="0">
      <root>
        <mxCell id="0" />
        <mxCell id="1" parent="0" />
      </root>
    </mxGraphModel>
  </diagram>
</mxfile>
